<svg width="150" height="99" viewBox="0 0 150 99" fill="none" xmlns="http://www.w3.org/2000/svg">
<g clip-path="url(#clip0_23_3134)">
<path d="M101.346 2.80469H5.58789V30.6746H101.346V2.80469Z" fill="white"/>
<path d="M86.1367 36.25H2.48438V64.1199H86.1367V36.25Z" fill="white"/>
<path d="M145.422 69.6914H2.01758V97.5613H145.422V69.6914Z" fill="white"/>
<path d="M83.5127 60.2144V56.6068H74.7439V39.0952H70.8795V60.2144H83.5127ZM36.4097 39.0952H20.9053V42.7028H26.7253V60.1834C28.0445 60.2609 29.3171 60.2763 30.6053 60.1834V42.6719H36.4097V39.0952ZM19.3378 40.0707C18.5773 39.792 17.91 39.5597 17.2271 39.2965C15.4268 38.6307 13.5644 38.4449 11.6555 38.6927C10.0414 38.9094 8.61355 39.5133 7.68236 40.8913C6.09933 43.2447 6.53388 46.3878 8.70667 48.2923C10.15 49.5619 11.7796 50.5993 13.3006 51.776C13.9524 52.287 14.6508 52.7824 15.163 53.4172C16.3425 54.8727 15.5354 56.421 13.8282 56.7771C12.2297 57.1178 10.6622 56.7616 9.17227 56.1423C8.44283 55.8481 7.75996 55.4765 7.015 55.1204C6.42525 56.2971 5.85101 57.4584 5.27677 58.6351C5.40093 58.728 10.1811 60.7099 12.7419 60.6944C14.2628 60.6789 15.7372 60.4312 17.0564 59.6725C18.7636 58.7125 19.6172 57.2106 19.7724 55.2598C19.9431 53.2624 19.4775 51.4664 17.9565 50.1348C16.4821 48.8497 14.8215 47.7659 13.254 46.5582C12.5401 46.0008 11.8107 45.4588 11.2054 44.7931C10.6156 44.1583 10.7398 42.8267 11.9969 42.4861C13.2385 42.1609 14.418 42.3932 15.582 42.7802C16.2338 42.997 16.8546 43.3067 17.553 43.5854C18.1428 42.4706 18.7015 41.3403 19.3378 40.0707ZM51.464 56.6378H42.6953V50.6612H50.4087V47.1465H42.6953V42.6099H51.3088V39.0797H38.8463V60.168H51.464V56.6378ZM67.3409 42.6099V39.0952H54.8784V60.1834H67.4806V56.6687H58.7739V50.6457H66.4252V47.1156H58.7584V42.6099H67.3409ZM89.1309 65.8813L0.0155199 65.8968L0 32.8555H89.1309V65.8813Z" fill="#EE7717"/>
<path d="M47.1031 11.9062C47.1031 11.1784 47.1186 10.4507 47.1031 9.72302C47.1031 9.5527 47.0565 9.33594 47.0565 9.33594L50.8434 9.35142C51.4176 9.38239 52.0539 9.52174 52.5351 9.81592C52.9075 10.0482 53.1714 10.5746 53.311 11.0081C53.5749 11.7978 53.5438 12.6029 53.1093 13.3771C52.5816 14.3216 51.7435 14.5074 50.8279 14.5693L47.041 14.5538C47.041 14.5538 47.0876 14.3061 47.0876 14.1667C47.1031 13.4235 47.1031 12.6648 47.1031 11.9062Z" fill="#F8B72A"/>
<path d="M73.6264 18.9039C71.9037 18.8265 70.15 18.811 68.0703 18.9039C69.1722 16.6588 70.0569 14.3828 70.8484 12.2461C71.7175 14.3673 72.5556 16.6588 73.6264 18.9039Z" fill="#F8B72A"/>
<path d="M88.5105 23.4881C88.6813 23.3952 88.8675 23.3488 88.9606 23.3333C89.3641 23.2404 100.042 23.3023 100.042 23.3023L98.1174 27.0183C98.1174 27.0183 87.4862 27.0183 82.3802 27.0183H81.7904C83.032 24.8971 92.1112 11.3647 93.4304 9.35189C93.3372 9.42931 92.6544 9.55317 90.9006 9.55317C88.5105 9.55317 83.2338 9.49124 83.2338 9.49124L85.1272 5.83719C85.1272 5.83719 100.011 5.82171 100.182 5.82171C100.182 5.83719 92.4371 17.5116 88.5105 23.4881ZM77.1034 26.9718C76.9948 26.9099 74.8841 22.1256 74.8065 22.0482C74.6978 21.9398 67.0465 21.9398 66.9379 21.9862C66.7827 22.0637 64.703 26.9254 64.6099 26.9873C64.5167 27.0493 60.3884 27.0338 60.3419 26.9718C60.3108 26.9099 70.3988 5.69784 70.3988 5.69784H71.3455C71.3455 5.69784 81.3403 26.817 81.4024 27.0028C81.1231 27.0028 77.212 27.0338 77.1034 26.9718ZM55.0496 27.0183L48.0036 17.8832H47.0568V27.0183H43.27L43.3165 5.83719C43.3165 5.83719 49.1986 5.77526 51.837 5.89912C53.6838 5.99202 55.3445 6.70425 56.493 8.26806C57.1293 9.13513 57.4397 10.1415 57.5173 11.1944C57.6725 13.3156 57.0051 15.0962 55.329 16.4742C54.584 17.078 53.6994 17.3877 52.7682 17.5271C52.613 17.5425 52.4733 17.5735 52.2094 17.6045L60.0005 27.0183H55.0496ZM31.4438 27.0183H30.5747C30.5747 27.0183 20.9523 6.00751 20.9058 5.83719C22.4112 5.83719 25.4065 5.83719 25.4065 5.83719L30.823 19.416C30.8385 19.4625 30.8075 19.3696 31.0248 20.0353C31.1489 19.5244 31.1334 19.5708 31.18 19.4315L36.6274 5.83719H41.0196L31.4438 27.0183ZM19.8194 26.9099H7.18616V5.82171H19.6487V9.35189H11.0351V13.8885H18.7485V17.4032H11.0506V23.3797H19.8194V26.9099ZM0.0159592 0.0309665C0.0159592 0.0309665 -0.0150806 32.391 0.000439328 32.8555C0.295318 32.8555 104.434 32.8865 104.434 32.8865L104.45 0L0.0159592 0.0309665Z" fill="#F8B72A"/>
<path d="M95.0129 71.8129H91.195V92.963H95.0129V71.8129ZM47.0253 92.9476H50.8743V71.8284H47.0253V92.9476ZM55.2043 71.8129V92.9476H67.791V89.34H59.0222V71.8129H55.2043ZM25.7475 71.8129C25.7475 72.0606 25.732 80.53 25.7631 84.5711C25.7631 85.4537 25.8251 86.3362 25.9803 87.2033C26.2907 88.829 27.0202 90.269 28.2928 91.3838C29.7206 92.6379 31.4123 93.2108 33.2902 93.3656C34.9353 93.4895 36.5339 93.3811 38.0859 92.7927C41.3606 91.5541 42.9126 88.6432 42.9436 85.5311C43.0057 81.1183 42.9591 72.0142 42.9591 71.8594C41.6399 71.8594 40.3518 71.8594 39.0326 71.8594C39.0326 72.0606 39.0326 79.9416 39.0326 83.7195C39.0326 84.4318 39.0016 85.144 38.8929 85.8407C38.7222 86.9246 38.2566 87.869 37.3875 88.5813C36.1614 89.5722 34.7181 89.727 33.2592 89.4638C31.7227 89.1851 30.5898 88.2871 30.1086 86.7852C29.8603 85.9956 29.7206 85.1285 29.7206 84.2924C29.6741 80.3287 29.6896 72.0761 29.6896 71.8594H25.7475V71.8129ZM70.2276 92.9785C70.4915 92.9785 74.9146 93.0405 76.9322 92.963C78.2049 92.9166 79.5085 92.7772 80.7346 92.4831C83.0005 91.9411 84.8784 90.718 86.2287 88.798C87.3771 87.1568 87.9203 85.3143 88.029 83.3325C88.1376 81.3041 87.9514 79.3068 87.0512 77.4488C85.2975 73.8257 82.1935 72.1845 78.3445 71.9213C75.7527 71.7355 70.7863 71.8594 70.2121 71.8748V92.9785H70.2276ZM17.1805 81.7067C17.4133 81.6603 17.5375 81.6293 17.6461 81.6138C18.5929 81.459 19.462 81.1029 20.1604 80.4216C21.6658 78.9352 21.8831 76.0553 20.6105 74.1973C19.462 72.5406 17.7858 71.8903 15.8458 71.8748C13.0678 71.8284 7.21676 71.8903 7.0926 71.9058V93.0095C7.29436 93.0095 12.0745 93.025 14.3094 93.0095C15.3958 92.994 16.4822 92.994 17.553 92.8547C18.7946 92.6998 19.9276 92.2198 20.8898 91.3683C22.2866 90.1141 22.7367 88.4884 22.628 86.6768C22.5039 84.4627 21.4485 82.9144 19.2913 82.2177C18.6239 82.0009 17.9565 81.8925 17.1805 81.7067ZM137.894 84.3853C137.677 86.2123 136.793 87.6832 135.147 88.6587C133.658 89.5258 132.028 89.7116 130.352 89.5103C128.396 89.278 126.767 88.4419 125.634 86.8162C124.33 84.9737 124.035 82.8989 124.47 80.7158C124.873 78.6565 125.929 77.0308 127.822 76.0863C130.647 74.6773 133.425 75.0489 136.11 76.5353C136.513 76.7521 136.886 77.0308 137.289 77.294C138.081 76.2256 138.872 75.2037 139.71 74.0735C139.586 73.996 137.398 72.6645 136.311 72.231C133.766 71.24 131.128 71.0852 128.458 71.689C125.153 72.4322 122.654 74.2593 121.226 77.3559C120 80.019 119.86 82.7751 120.574 85.593C121.319 88.5658 123.057 90.7799 125.789 92.1424C128.334 93.4275 131.05 93.6908 133.828 93.1798C136.249 92.7308 138.22 91.5541 139.695 89.5877C141.154 87.6368 141.759 85.3762 141.899 82.9763C141.93 82.3415 141.899 81.6912 141.899 81.0254H131.376V84.4473C132.478 84.4627 136.762 84.4163 137.894 84.3853ZM99.9483 71.5807H99.312V92.963H103.161C103.161 92.963 103.161 84.5401 103.161 80.3597C103.161 80.0964 103.114 79.8642 103.052 79.6319C103.533 80.2203 114.397 91.2134 116.399 93.2108H117.113V71.8284H113.202V84.6021C113.202 84.8034 113.28 84.9582 113.295 85.1595L99.9483 71.5807ZM150 65.8828V99.0015H0L0.0155199 65.8983L150 65.8828Z" fill="#58064A"/>
<path d="M10.9102 89.6031V83.7969C10.9412 83.8433 11.0654 83.8743 11.1895 83.8743H15.6437C15.9076 83.8743 16.1714 83.9362 16.4197 83.9672C17.6924 84.1065 18.4839 85.1749 18.546 86.4135C18.6236 88.0393 17.8941 89.0612 16.5904 89.3554C16.2024 89.4483 15.7989 89.5102 15.4109 89.5102C14.2625 89.5257 12.4466 89.5102 11.2982 89.5102C11.0343 89.5102 10.9722 89.5566 10.9102 89.6031Z" fill="#58064A"/>
<path d="M10.9258 80.3899V75.1875C11.0189 75.2185 11.081 75.2494 11.2672 75.2649C12.2605 75.2649 13.7814 75.2494 14.7747 75.2804C15.1782 75.2959 15.6128 75.3578 15.9853 75.5126C17.0872 75.9617 17.5993 76.8907 17.4286 78.0674C17.2579 79.3215 16.4664 80.1731 15.2869 80.2815C14.8678 80.3279 14.4333 80.3589 13.9987 80.3589C13.5021 80.3589 11.6863 80.3434 11.1896 80.3589C11.0499 80.3434 10.9723 80.3589 10.9258 80.3899Z" fill="#58064A"/>
<path d="M74.0938 89.4641V75.4053C75.2267 75.4053 76.3597 75.3898 77.4926 75.4053C80.3948 75.4518 82.7073 76.9227 83.5143 79.6477C84.3059 82.3573 84.1817 85.0204 82.3193 87.3274C81.3416 88.5351 79.9758 89.139 78.4549 89.3093C77.415 89.4177 74.5128 89.4486 74.0938 89.4641Z" fill="#58064A"/>
</g>
<defs>
<clipPath id="clip0_23_3134">
<rect width="150" height="99" fill="white"/>
</clipPath>
</defs>
</svg>
